<?xml version="1.0" standalone="no"?>
<!DOCTYPE svg PUBLIC "-//W3C//DTD SVG 20010904//EN"
 "http://www.w3.org/TR/2001/REC-SVG-20010904/DTD/svg10.dtd">
<svg version="1.0" xmlns="http://www.w3.org/2000/svg"
 width="512.000000pt" height="512.000000pt" viewBox="0 0 512.000000 512.000000"
 preserveAspectRatio="xMidYMid meet">
<metadata>
Created by potrace 1.14, written by Peter Selinger 2001-2017
</metadata>
<g transform="translate(0.000000,512.000000) scale(0.100000,-0.100000)"
fill="#000000" stroke="none">
<path d="M560 5104 c-220 -47 -393 -216 -450 -440 -20 -75 -20 -117 -20 -1718
0 -1405 2 -1651 15 -1711 46 -219 224 -402 445 -456 45 -11 273 -14 1230 -14
1112 0 1178 1 1235 18 210 65 365 222 422 428 17 60 18 170 18 1729 0 1564 -1
1669 -18 1729 -61 222 -236 391 -452 436 -101 21 -2326 21 -2425 -1z m2377
-395 c40 -15 82 -57 104 -104 18 -38 19 -104 19 -1665 0 -1555 -1 -1627 -19
-1665 -22 -49 -69 -91 -119 -105 -26 -8 -385 -10 -1172 -8 l-1135 3 -36 24
c-48 33 -76 75 -89 136 -7 35 -10 545 -8 1650 l3 1600 28 47 c16 28 44 57 70
72 l42 26 1142 0 c783 0 1151 -3 1170 -11z"/>
<path d="M2475 4508 c-18 -49 -175 -556 -175 -565 0 -9 19 -13 60 -13 68 0 78
9 100 93 l13 48 90 -3 90 -3 16 -55 c23 -79 24 -80 97 -80 54 0 64 3 63 18 0
9 -41 141 -92 292 l-92 275 -83 3 c-60 2 -84 -1 -87 -10z m119 -231 c14 -55
26 -101 26 -103 0 -2 -25 -4 -55 -4 -65 0 -64 -1 -34 109 25 95 29 105 33 100
2 -2 16 -48 30 -102z"/>
<path d="M2090 3574 c-58 -31 -168 -80 -245 -110 -77 -30 -149 -59 -160 -64
-43 -19 -318 -72 -455 -86 -80 -8 -154 -17 -165 -19 -14 -3 -44 -46 -97 -142
-130 -235 -200 -372 -196 -387 2 -8 152 -114 334 -234 413 -274 452 -299 435
-278 -8 9 -9 16 -3 16 11 0 27 -19 27 -32 0 -3 4 -10 9 -15 5 -5 6 -3 2 5 -14
23 10 12 40 -19 16 -17 103 -81 194 -141 91 -61 179 -125 196 -144 22 -24 36
-32 52 -28 29 8 45 35 101 172 179 435 215 519 226 532 21 26 87 176 177 400
38 96 85 201 104 234 19 32 36 67 37 78 2 20 -20 30 -292 129 -89 32 -97 37
-140 93 -25 33 -53 67 -61 77 -14 17 -20 16 -120 -37z m-364 -210 c52 -18 91
-51 112 -98 9 -21 18 -27 33 -23 14 4 23 -1 29 -16 7 -18 9 -15 10 18 l2 40
14 -42 c14 -39 17 -41 41 -32 20 7 28 6 38 -7 8 -12 14 -14 19 -6 4 7 3 12 -2
12 -5 0 -7 14 -4 30 2 17 10 30 17 30 7 0 15 6 18 13 4 9 7 9 18 0 9 -9 16
-10 26 -2 16 14 18 9 33 -96 7 -44 21 -118 31 -164 11 -46 18 -85 17 -86 -9
-5 -335 -144 -346 -147 -10 -2 -38 80 -98 292 -46 162 -84 295 -84 297 0 7 30
2 76 -13z m868 -192 c-89 -64 -164 -112 -164 -105 1 9 181 133 194 133 5 0 -9
-13 -30 -28z m-1121 -850 c32 -24 56 -46 53 -49 -5 -6 -121 81 -132 99 -10 15
9 4 79 -50z"/>
<path d="M717 1943 c-4 -8 164 -551 177 -572 4 -6 39 -11 86 -11 l78 0 96 288
c53 158 96 291 96 295 0 4 -33 7 -72 5 l-72 -3 -19 -63 -19 -63 -91 3 -91 3
-14 50 c-8 28 -19 56 -24 63 -11 13 -124 17 -131 5z m296 -325 c-13 -51 -27
-100 -30 -108 -5 -13 -30 65 -57 173 l-6 27 59 0 59 0 -25 -92z"/>
<path d="M3660 4275 l0 -204 53 -15 c28 -8 192 -51 362 -96 416 -109 445 -118
483 -147 44 -33 72 -91 72 -151 0 -57 -798 -3091 -832 -3160 -28 -59 -84 -95
-156 -100 -47 -3 -113 11 -377 80 l-320 83 -735 -3 c-656 -3 -731 -5 -695 -18
22 -8 481 -132 1020 -274 669 -178 1004 -262 1055 -266 100 -8 203 14 307 67
107 54 209 157 259 263 24 52 145 493 451 1646 l417 1575 0 105 c1 84 -4 120
-23 178 -49 150 -168 286 -307 353 -37 17 -253 79 -535 154 -261 69 -480 127
-486 130 -10 3 -13 -41 -13 -200z"/>
<path d="M4047 3718 c-61 -82 -308 -479 -303 -487 6 -9 83 -31 111 -31 8 0 31
25 51 56 30 46 39 55 57 50 12 -4 50 -13 85 -22 l62 -16 0 -57 c0 -32 6 -65
13 -74 13 -19 117 -51 129 -39 6 7 -19 544 -28 589 -4 22 -8 24 -136 59 -10 3
-25 -7 -41 -28z m60 -335 c-4 -4 -98 16 -105 23 -2 1 20 44 50 94 l53 92 3
-102 c1 -57 1 -104 -1 -107z"/>
</g>
</svg>
